<svg xmlns="http://www.w3.org/2000/svg" width="179" height="23" fill="none"><path fill="#333135" d="M11.7 22.7H5.8L0 1.9h5.66L9 18.44l3.63-16.52h4.77l3.7 16.5 3.33-16.5h5.44L24.03 22.7h-5.7l-2.4-10.08L15 7.55h-.05l-.88 5.07L11.7 22.7zM37.77 6.64c2.55 0 4.53.72 5.94 2.17 1.43 1.44 2.15 3.44 2.15 6.02 0 2.58-.72 4.6-2.14 6.04C42.3 22.3 40.33 23 37.78 23c-2.54 0-4.53-.7-5.96-2.14-1.4-1.45-2.1-3.46-2.1-6.04s.7-4.58 2.1-6c1.44-1.46 3.43-2.18 5.97-2.18zm0 3.8c-.97 0-1.7.35-2.17 1.04-.47.7-.7 1.8-.7 3.34 0 1.53.23 2.64.7 3.33.47.7 1.2 1.04 2.17 1.04.98 0 1.7-.35 2.18-1.05.46-.7.7-1.8.7-3.33s-.24-2.64-.7-3.34c-.47-.7-1.2-1.03-2.18-1.03zM56.17 6.64c2.55 0 4.52.72 5.93 2.17 1.43 1.44 2.14 3.44 2.14 6.02 0 2.58-.7 4.6-2.14 6.04C60.7 22.3 58.72 23 56.17 23s-4.54-.7-5.96-2.14c-1.4-1.45-2.1-3.46-2.1-6.04s.7-4.58 2.1-6c1.43-1.46 3.42-2.18 5.97-2.18zm0 3.8c-.98 0-1.7.35-2.17 1.04-.47.7-.7 1.8-.7 3.34 0 1.53.23 2.64.7 3.33.47.7 1.2 1.04 2.17 1.04.98 0 1.7-.35 2.17-1.05.47-.7.7-1.8.7-3.33s-.23-2.64-.7-3.34c-.47-.7-1.2-1.03-2.17-1.03zM75.42 1.6c1.92 0 3.55.3 4.9.9 1.36.57 2.62 1.53 3.8 2.85l-2.98 3.52c-.67-1.05-1.47-1.8-2.4-2.3-.88-.5-1.96-.75-3.23-.75-1.05 0-1.86.2-2.43.57-.57.36-.86.87-.86 1.5 0 .52.3.95.9 1.3.6.3 1.64.6 3.1.87 2.78.52 4.77 1.3 5.95 2.3 1.2 1 1.8 2.42 1.8 4.24 0 1.33-.36 2.48-1.1 3.44-.73.97-1.75 1.7-3.06 2.2-1.3.5-2.75.76-4.38.76-2.28 0-4.14-.28-5.56-.85-1.43-.6-2.66-1.48-3.7-2.67l2.7-3.78c.78 1.13 1.68 1.93 2.68 2.4 1 .45 2.2.68 3.6.68 1.13 0 1.96-.15 2.5-.47.58-.32.87-.8.87-1.4 0-.5-.3-.87-.9-1.17-.6-.3-1.6-.6-3-.88-1.74-.36-3.17-.78-4.32-1.26-1.12-.5-2-1.18-2.63-2.02-.6-.84-.9-1.9-.9-3.2 0-1.3.32-2.48 1-3.5.7-1.03 1.7-1.83 3-2.4 1.32-.58 2.88-.88 4.67-.88zM97.94 21.8c-.5.36-1.16.65-1.95.9-.8.2-1.57.3-2.37.3-1.8 0-3.2-.4-4.16-1.2-.95-.8-1.44-2.07-1.46-3.83v-7.2H85.4V6.94H88V3.43l5.2-1.48v5h4.6v3.8h-4.6v6.33c0 1.4.68 2.1 2.02 2.1.84 0 1.57-.22 2.2-.68l.52 3.3zM109.58 6.64c.7 0 1.25.1 1.65.34l-.55 4.54c-.2-.13-.48-.23-.82-.32-.35-.1-.72-.16-1.1-.16-.98 0-1.8.33-2.45.98-.64.63-.97 1.54-.97 2.74v7.93h-5.2V6.94h4.6l.2 3.4c.37-1.2.94-2.1 1.72-2.74.8-.64 1.77-.96 2.93-.96zM120.43 6.64c2.55 0 4.53.72 5.93 2.17 1.43 1.44 2.14 3.44 2.14 6.02 0 2.58-.7 4.6-2.14 6.04-1.4 1.43-3.38 2.14-5.93 2.14s-4.54-.7-5.96-2.14c-1.4-1.45-2.1-3.46-2.1-6.04s.7-4.58 2.1-6c1.42-1.46 3.4-2.18 5.96-2.18zm0 3.8c-.98 0-1.7.35-2.17 1.04-.47.7-.7 1.8-.7 3.34 0 1.53.23 2.64.7 3.33.47.7 1.2 1.04 2.17 1.04.98 0 1.7-.35 2.17-1.05.47-.7.7-1.8.7-3.33s-.23-2.64-.7-3.34c-.47-.7-1.2-1.03-2.17-1.03zM134.1 5.13c-1.07 0-1.85-.2-2.34-.6-.47-.42-.7-1.07-.7-1.95 0-.9.23-1.55.7-1.95.5-.42 1.27-.63 2.33-.63 1.05 0 1.8.2 2.28.63.5.4.73 1.05.73 1.95 0 .88-.23 1.53-.72 1.95-.47.4-1.23.6-2.3.6zm2.6 17.56h-5.2V6.94h5.2V22.7zM155.9.28v22.4h-4.7l-.17-2.98c-.45 1.02-1.1 1.83-2 2.42-.85.6-1.85.88-3 .88-1.97 0-3.5-.7-4.63-2.14-1.1-1.43-1.66-3.42-1.66-5.98 0-2.6.56-4.62 1.7-6.07 1.1-1.44 2.66-2.16 4.63-2.16 1.08 0 2 .26 2.8.8.76.5 1.37 1.23 1.82 2.16V.28h5.2zm-8.05 18.8c.83 0 1.5-.32 1.98-.93.5-.62.8-1.53.86-2.7V14.2c-.07-1.16-.36-2.05-.87-2.68-.5-.63-1.15-.95-1.98-.95-.92 0-1.63.35-2.14 1.04-.48.7-.73 1.77-.73 3.22 0 1.45.25 2.52.74 3.2.52.7 1.23 1.05 2.15 1.05z"/><path fill="#C2A099" d="M161.73 19.22c3.86-2.38 6.64-4.48 8.35-6.3 1.74-1.87 2.6-3.6 2.6-5.23 0-.93-.26-1.66-.8-2.2-.53-.58-1.3-.87-2.28-.87-1.1 0-1.94.4-2.57 1.2-.6.78-.9 1.93-.93 3.44L161 7.72c.05-2.44.9-4.34 2.53-5.7C165.2.7 167.33 0 169.98 0c1.92 0 3.52.35 4.82 1.06 1.3.7 2.25 1.58 2.88 2.68.62 1.1.93 2.28.93 3.54 0 2.13-.8 4.08-2.4 5.87-1.6 1.78-4.04 3.6-7.3 5.46v.04c1.53-.1 3.07-.14 4.6-.14h5.4V23h-17.17v-3.78z"/></svg>