<svg xmlns="http://www.w3.org/2000/svg" width="179" height="23" fill="none"><path fill="#333135" d="M9.55 6.77c2.73 0 4.8.45 6.17 1.34 1.38.9 2.24 2.07 2.58 3.5l-5.74 1.63c-.24-1.8-1.17-2.68-2.8-2.68-2.4 0-3.6 1.46-3.6 4.4 0 2.85 1.2 4.27 3.6 4.27 1.72 0 2.73-.84 3.02-2.52l5.55 1.53c-.26 1.4-1.15 2.56-2.65 3.46-1.47.86-3.43 1.3-5.88 1.3-3.14 0-5.56-.7-7.26-2.12-1.7-1.42-2.54-3.4-2.54-6 0-2.55.84-4.54 2.5-5.95C4.2 7.5 6.56 6.77 9.56 6.77zM32.83 6.77c.82 0 1.48.12 1.96.35l-.66 4.5c-.24-.14-.57-.24-.98-.32-.4-.1-.85-.16-1.3-.16-1.17 0-2.14.32-2.9.97-.8.63-1.18 1.54-1.18 2.72v7.87H21.6V7.07h5.46l.25 3.37c.45-1.18 1.13-2.1 2.05-2.7.94-.66 2.1-.98 3.48-.98zM54.54 19.66c.45 0 .83-.04 1.12-.12l-.47 2.96c-.7.33-1.54.5-2.48.5-2.6 0-4.18-.8-4.68-2.4-1.1 1.6-3.25 2.4-6.47 2.4-1.8 0-3.2-.33-4.17-1-.97-.66-1.45-1.63-1.45-2.9 0-1.33.54-2.4 1.63-3.22 1.1-.83 2.93-1.46 5.45-1.9l4.1-.7v-.55c0-.7-.23-1.27-.7-1.68-.45-.42-1.08-.63-1.88-.63-.92 0-1.67.2-2.25.57-.58.36-.96.97-1.13 1.83l-5-1.25c.3-1.52 1.18-2.7 2.6-3.53 1.44-.85 3.36-1.28 5.78-1.28 2.83 0 5 .5 6.46 1.5 1.5 1 2.23 2.5 2.23 4.5v5.67c0 .82.43 1.22 1.3 1.22zm-10.7-.1c.83 0 1.6-.2 2.27-.6.7-.4 1.03-.94 1.03-1.6V16l-2.94.6c-.8.17-1.34.38-1.68.63-.32.23-.47.56-.47 1 0 .43.15.77.47 1 .3.22.75.34 1.3.34zM84.13 21.8c-.58.37-1.35.66-2.3.9-.93.2-1.88.3-2.82.3-2.15 0-3.8-.4-4.93-1.2-1.14-.78-1.72-2.05-1.74-3.8v-7.14h-6.9V22.7h-6.17V10.85h-2.9V7.08h2.9V5.65c0-1.87.65-3.28 1.96-4.2C62.55.47 64.22 0 66.27 0c.82 0 1.54.08 2.17.25.66.15 1.2.35 1.6.62l-.43 3.28c-.55-.27-1.18-.4-1.88-.4-.83 0-1.48.18-1.96.56-.46.36-.7.92-.7 1.7v1.08h7.27v-3.5l6.17-1.46v4.96h5.45v3.78H78.5v6.27c0 1.4.8 2.1 2.4 2.1 1 0 1.86-.23 2.6-.7l.63 3.28zM104.42 14.67c0 .7-.06 1.3-.18 1.75H91.86c.2.97.6 1.7 1.24 2.15.65.46 1.5.7 2.57.7.9 0 1.63-.16 2.18-.45.58-.3.97-.72 1.16-1.28l5.02 1.37c-.5 1.34-1.5 2.36-2.97 3.07-1.46.7-3.25 1.03-5.38 1.03-3.17 0-5.6-.7-7.3-2.12-1.66-1.42-2.5-3.4-2.5-6 0-2.57.82-4.57 2.47-6 1.65-1.4 3.98-2.1 7-2.1 2.94 0 5.17.7 6.72 2.08 1.58 1.38 2.36 3.3 2.36 5.8zm-9.1-4.18c-1.97 0-3.13 1-3.5 3.04h6.83c-.3-2.03-1.4-3.05-3.34-3.05zM117 16.3l-2.95 2.8v3.6h-6.18V.46h6.17v13.17l6.94-6.56h6.83l-6.67 6.12 7.07 9.5h-6.82l-4.4-6.4z"/><path fill="#C2A099" d="M139.96 16.15l-2.83 2.87v3.66h-5.94V0h5.93v13.44l6.68-6.7h6.58L143.94 13l6.82 9.68h-6.57l-4.24-6.53zM160.37 6.43c2.9 0 5.17.74 6.78 2.2 1.63 1.45 2.44 3.48 2.44 6.1 0 2.6-.82 4.64-2.45 6.1-1.6 1.45-3.87 2.17-6.78 2.17-2.92 0-5.2-.72-6.82-2.17-1.6-1.46-2.4-3.5-2.4-6.1 0-2.62.8-4.65 2.4-6.1 1.63-1.46 3.9-2.2 6.8-2.2zm0 3.86c-1.12 0-1.95.34-2.5 1.04-.52.7-.8 1.83-.8 3.38 0 1.55.28 2.67.8 3.37.55.7 1.38 1.05 2.5 1.05 1.1 0 1.94-.35 2.48-1.06.53-.7.8-1.83.8-3.38 0-1.55-.27-2.68-.8-3.38-.54-.7-1.37-1.05-2.48-1.05zM175.4 17.2c1.1 0 1.94.26 2.55.77.63.5.94 1.22.94 2.13 0 .9-.33 1.6-.95 2.1-.6.5-1.46.77-2.56.77s-1.96-.26-2.6-.77c-.6-.5-.9-1.2-.9-2.1 0-.9.3-1.62.9-2.13.64-.5 1.5-.77 2.6-.77z"/></svg>